<?xml version="1.0" encoding="iso-8859-1"?>
<!-- Generator: Adobe Illustrator 19.0.0, SVG Export Plug-In . SVG Version: 6.00 Build 0)  -->
<svg version="1.1" id="Layer_1" xmlns="http://www.w3.org/2000/svg" xmlns:xlink="http://www.w3.org/1999/xlink" x="0px" y="0px"
	 viewBox="0 0 512 512" style="enable-background:new 0 0 512 512;" xml:space="preserve">
<path style="fill:#E88158;" d="M355.881,84.971H156.586c-17.957,0-32.514,14.557-32.514,32.514v353.034
	c0,17.957,14.557,32.514,32.514,32.514h199.295c17.957,0,32.514-14.557,32.514-32.514V117.485
	C388.397,99.528,373.839,84.971,355.881,84.971z"/>
<path style="fill:#D37250;" d="M171.958,470.519V117.485c0-17.957,14.557-32.514,32.514-32.514h-47.885
	c-17.957,0-32.514,14.557-32.514,32.514v353.034c0,17.957,14.557,32.514,32.514,32.514h47.885
	C186.515,503.033,171.958,488.476,171.958,470.519z"/>
<path style="fill:#CCCCCC;" d="M313.217,9.449H199.252c-10.983,0-19.887,8.904-19.887,19.887V84.97h153.739V29.338
	C333.104,18.353,324.2,9.449,313.217,9.449z"/>
<path style="fill:#B3B3B3;" d="M239.77,9.449h-40.518c-10.983,0-19.887,8.904-19.887,19.887V84.97h40.518V29.338
	C219.883,18.353,228.787,9.449,239.77,9.449z"/>
<path style="fill:#5DACD8;" d="M388.401,294.008v176.512c0,17.951-14.562,32.513-32.525,32.513H156.589
	c-17.963,0-32.513-14.562-32.513-32.513V294.008H388.401z"/>
<path style="fill:#4C9CBF;" d="M124.073,294.008v176.51c0,17.957,14.557,32.514,32.514,32.514h47.885
	c-17.957,0-32.514-14.557-32.514-32.514v-176.51H124.073z"/>
<path d="M306.993,175.209h-41.788V133.42c0-5.086-4.122-9.209-9.209-9.209c-5.087,0-9.209,4.123-9.209,9.209v41.789h-41.789
	c-5.087,0-9.209,4.123-9.209,9.209s4.122,9.209,9.209,9.209h41.789v41.789c0,5.086,4.122,9.209,9.209,9.209
	c5.087,0,9.209-4.123,9.209-9.209v-41.789h41.788c5.087,0,9.209-4.123,9.209-9.209S312.079,175.209,306.993,175.209z"/>
<path d="M388.162,157.491c5.087,0,9.209-4.123,9.209-9.209v-31.039c0-23.006-18.721-41.721-41.732-41.721h-13.564V29.096
	C342.075,13.052,329.022,0,312.979,0h-73.446c-5.087,0-9.209,4.123-9.209,9.209s4.122,9.209,9.209,9.209h73.446
	c5.889,0,10.678,4.79,10.678,10.678v46.425H188.335V29.096c0-5.889,4.79-10.678,10.678-10.678h9.823
	c5.087,0,9.209-4.123,9.209-9.209S213.923,0,208.836,0h-9.823c-16.043,0-29.096,13.052-29.096,29.096v46.426h-13.569
	c-23.004,0-41.72,18.716-41.72,41.721v353.035c0,23.006,18.716,41.721,41.72,41.721h199.289c23.012,0,41.732-18.716,41.732-41.721
	v-291.3c0-5.086-4.122-9.209-9.209-9.209c-5.087,0-9.209,4.123-9.209,9.209v291.3c0,12.85-10.46,23.304-23.315,23.304H156.349
	c-12.85,0-23.303-10.454-23.303-23.304V117.243c0-12.85,10.454-23.304,23.303-23.304h199.289c12.857,0,23.315,10.454,23.315,23.304
	v31.039C378.953,153.368,383.076,157.491,388.162,157.491z"/>
<path d="M306.993,410.092H204.999c-5.087,0-9.209,4.123-9.209,9.209s4.122,9.209,9.209,9.209h101.994
	c5.087,0,9.209-4.123,9.209-9.209S312.079,410.092,306.993,410.092z"/>
<g>
</g>
<g>
</g>
<g>
</g>
<g>
</g>
<g>
</g>
<g>
</g>
<g>
</g>
<g>
</g>
<g>
</g>
<g>
</g>
<g>
</g>
<g>
</g>
<g>
</g>
<g>
</g>
<g>
</g>
</svg>
