<?xml version="1.0" encoding="iso-8859-1"?>
<!-- Generator: Adobe Illustrator 19.0.0, SVG Export Plug-In . SVG Version: 6.00 Build 0)  -->
<svg version="1.1" id="Capa_1" xmlns="http://www.w3.org/2000/svg" xmlns:xlink="http://www.w3.org/1999/xlink" x="0px" y="0px"
	 viewBox="0 0 512 512" style="enable-background:new 0 0 512 512;" xml:space="preserve">
<g>
	<path style="fill:#CFEFFF;" d="M85.491,313.373L313.233,85.635c-17.096-15.535-29.48-30.777-29.48-47.881
		C283.751,22.488,271.264,10,255.999,10c-15.264,0-27.751,12.488-27.753,27.754c0,35.096-45.448,55.668-90.135,100.359
		c-37.999,37.996-65.265,90.133-100.358,90.137c-15.265,0-27.752,12.488-27.752,27.754c0,15.264,12.487,27.752,27.752,27.752
		C55.747,283.756,69.925,295.705,85.491,313.373z"/>
	<path style="fill:#FF5A5A;" d="M313.233,85.635L85.491,313.373c7.979,9.059,16.324,19.613,25.736,30.836L343.952,111.48
		C333.144,102.553,322.497,94.049,313.233,85.635z"/>
	<path style="fill:#70B2CF;" d="M343.952,111.48L111.228,344.209c8.036,9.586,16.852,19.652,26.884,29.684
		c9.444,9.443,19.763,18.225,29.935,26.631l232.728-232.727c-8.039-9.588-16.853-19.658-26.885-29.684
		C364.444,128.668,354.127,119.883,343.952,111.48z"/>
	<path style="fill:#FF5A5A;" d="M400.774,167.797L168.047,400.523c10.812,8.928,21.458,17.428,30.722,25.846l227.74-227.742
		C418.529,189.574,410.184,179.014,400.774,167.797z"/>
	<path style="fill:#CFEFFF;" d="M426.509,198.627l-227.74,227.742c17.094,15.531,29.478,30.779,29.478,47.881
		c0.002,15.262,12.489,27.75,27.755,27.75c15.263,0,27.75-12.488,27.752-27.75c0.002-35.096,45.451-55.672,90.137-100.357
		c37.999-38.002,65.264-90.137,100.359-90.137c15.262,0,27.75-12.488,27.75-27.756c0-15.262-12.488-27.75-27.75-27.75
		C456.253,228.246,442.077,216.299,426.509,198.627z"/>
</g>
<path d="M474.249,218.25c-14.057,0-26.095-10.189-39.974-25.922c-0.029-0.037-0.064-0.07-0.093-0.105
	c-4.883-5.541-9.992-11.758-15.501-18.467c-3.238-3.943-6.609-8.047-10.14-12.258c-0.01-0.012-0.02-0.023-0.029-0.033
	c-8.183-9.762-17.233-20.105-27.551-30.424c-9.757-9.756-20.236-18.672-30.619-27.246c-0.049-0.041-0.097-0.082-0.146-0.121
	c-2.325-1.918-4.647-3.828-6.952-5.719c-25.451-20.871-49.492-40.584-49.492-60.201C293.753,16.936,276.817,0,255.999,0
	c-20.816,0-37.753,16.936-37.753,37.754c0,19.029-18.661,34.355-44.489,55.564c-13.094,10.752-27.934,22.939-42.717,37.723
	c-11.984,11.986-22.709,25.064-33.081,37.711c-20.874,25.455-40.59,49.498-60.206,49.498c-20.816,0-37.752,16.936-37.752,37.754
	c0,20.816,16.936,37.752,37.752,37.752c19.028,0,34.354,18.662,55.564,44.49c10.752,13.094,22.938,27.934,37.723,42.717
	c9.746,9.746,20.213,18.652,30.586,27.219c0.067,0.057,0.134,0.113,0.201,0.166c2.314,1.912,4.626,3.813,6.922,5.693
	c25.454,20.875,49.497,40.592,49.497,60.209c0,20.816,16.936,37.75,37.755,37.75c20.816,0,37.752-16.934,37.752-37.75
	c0-19.031,18.666-34.359,44.5-55.572c13.09-10.75,27.928-22.934,42.709-37.715c11.983-11.984,22.709-25.063,33.08-37.711
	c20.873-25.455,40.59-49.496,60.207-49.496c20.814,0,37.75-16.938,37.75-37.756C511.999,235.184,495.063,218.25,474.249,218.25z
	 M198.331,412.664c-4.971-4.281-10.157-8.555-15.414-12.869l217.168-217.166c1.057,1.285,2.111,2.566,3.141,3.82
	c3.303,4.021,6.507,7.92,9.656,11.662L198.331,412.664z M108.773,325.555c-3.304-4.023-6.508-7.922-9.657-11.664L313.669,99.34
	c4.971,4.281,10.158,8.555,15.415,12.867l-217.167,217.17C110.858,328.092,109.804,326.809,108.773,325.555z M37.753,273.756
	c-9.789,0-17.752-7.963-17.752-17.752s7.963-17.754,17.752-17.754c29.08,0,51.711-27.598,75.671-56.814
	c10.065-12.273,20.472-24.965,31.759-36.252c14.091-14.092,28.528-25.947,41.267-36.408c28.939-23.766,51.797-42.535,51.797-71.021
	c0-9.789,7.964-17.754,17.753-17.754s17.754,7.965,17.754,17.754c0,17.844,10.398,33.258,25.178,48.041L85.798,298.924
	C71.195,283.768,56.601,273.756,37.753,273.756z M124.823,344.754l219.74-219.742c7.67,6.471,15.234,13.15,22.256,20.172
	c7.36,7.359,14.098,14.809,20.358,22.066l-219.74,219.74c-7.669-6.469-15.233-13.148-22.254-20.17
	C137.821,359.461,131.084,352.012,124.823,344.754z M474.249,273.756c-29.082,0-51.713,27.596-75.672,56.815
	c-10.064,12.273-20.472,24.963-31.758,36.25c-14.088,14.088-28.523,25.941-41.26,36.4c-28.944,23.768-51.807,42.543-51.807,71.029
	c0,9.787-7.963,17.75-17.752,17.75c-9.79,0-17.755-7.963-17.755-17.75c0-17.844-10.398-33.258-25.175-48.041L426.2,213.078
	c14.603,15.158,29.199,25.172,48.049,25.172c9.787,0,17.75,7.963,17.75,17.75C491.999,265.791,484.036,273.756,474.249,273.756z"/>
<path d="M249.478,102.82c2.55,0,5.1-0.969,7.051-2.908l0.336-0.334c3.916-3.893,3.936-10.225,0.041-14.143
	c-3.894-3.916-10.225-3.936-14.142-0.041l-0.336,0.334c-3.917,3.895-3.935,10.227-0.042,14.143
	C244.341,101.838,246.909,102.82,249.478,102.82z"/>
<path d="M197.37,154.928c2.56,0,5.119-0.977,7.072-2.928l31.543-31.543c3.904-3.906,3.904-10.238,0-14.143
	c-3.906-3.904-10.238-3.904-14.143,0L190.3,137.857c-3.905,3.904-3.905,10.236,0,14.143
	C192.252,153.951,194.812,154.928,197.37,154.928z"/>
<path d="M307.558,360.004l-31.54,31.539c-3.905,3.906-3.905,10.238-0.001,14.143c1.953,1.953,4.512,2.93,7.072,2.93
	c2.559,0,5.118-0.977,7.07-2.93l31.541-31.539c3.904-3.904,3.905-10.236,0-14.143C317.796,356.102,311.464,356.1,307.558,360.004z"
	/>
<path d="M255.44,412.119l-0.336,0.338c-3.9,3.91-3.891,10.242,0.02,14.141c1.953,1.947,4.507,2.92,7.061,2.92
	c2.564,0,5.128-0.98,7.081-2.939l0.336-0.338c3.9-3.91,3.891-10.242-0.02-14.141C265.671,408.199,259.34,408.209,255.44,412.119z"/>
<g>
</g>
<g>
</g>
<g>
</g>
<g>
</g>
<g>
</g>
<g>
</g>
<g>
</g>
<g>
</g>
<g>
</g>
<g>
</g>
<g>
</g>
<g>
</g>
<g>
</g>
<g>
</g>
<g>
</g>
</svg>
