<?xml version="1.0" encoding="iso-8859-1"?>
<!-- Generator: Adobe Illustrator 19.0.0, SVG Export Plug-In . SVG Version: 6.00 Build 0)  -->
<svg version="1.1" id="Layer_1" xmlns="http://www.w3.org/2000/svg" xmlns:xlink="http://www.w3.org/1999/xlink" x="0px" y="0px"
	 viewBox="0 0 512 512" style="enable-background:new 0 0 512 512;" xml:space="preserve">
<g>
	<polygon style="fill:#9F633C;" points="392.8,4 392.8,507.2 368.8,507.2 368.8,27.2 369.6,27.2 	"/>
	<polygon style="fill:#9F633C;" points="392,4 392,4.8 368.8,28 368,28 144.8,28 120.8,4 	"/>
</g>
<path style="fill:#F1F1F1;" d="M344.8,256c4.4,0,8,3.6,8,8s-3.6,8-8,8s-8-3.6-8-8S340.4,256,344.8,256z"/>
<g>
	<circle style="fill:#B78A6D;" cx="344.8" cy="296" r="4"/>
	<path style="fill:#B78A6D;" d="M144,28h0.8H368v480H144V28z M344.8,272c4.4,0,8-3.6,8-8s-3.6-8-8-8s-8,3.6-8,8S340.4,272,344.8,272
		z M348.8,296c0-2-1.6-4-4-4c-2,0-4,2-4,4s2,4,4,4S348.8,298,348.8,296z"/>
</g>
<polygon style="fill:#9F633C;" points="144,28 144,508 120,508 120,4 120.8,4 144.8,28 "/>
<path d="M392,512h-24c-2.4,0-4-1.6-4-4s1.6-4,4-4h20V8H124v496h20c2.4,0,4,1.6,4,4s-1.6,4-4,4h-24c-2.4,0-4-1.6-4-4V4
	c0-2.4,1.6-4,4-4h272c2.4,0,4,1.6,4,4v504C396,510.4,394.4,512,392,512z"/>
<path d="M368,512c-2.4,0-4-1.6-4-4V32H148v476c0,2.4-1.6,4-4,4s-4-1.6-4-4V28c0-2.4,1.6-4,4-4h224c2.4,0,4,1.6,4,4v480
	C372,510.4,370.4,512,368,512z"/>
<path d="M144.8,32c-1.2,0-2-0.4-2.8-1.2l-24-24c-1.6-1.6-1.6-4,0-5.6s4-1.6,5.6,0l24,24c1.6,1.6,1.6,4,0,5.6
	C146.8,31.6,145.6,32,144.8,32z"/>
<path d="M368.8,32c-1.2,0-2-0.4-2.8-1.2c-1.6-1.6-1.6-4,0-5.6L389.2,2c1.6-1.6,4-1.6,5.6,0s1.6,4,0,5.6l-23.2,23.2
	C370.8,31.6,369.6,32,368.8,32z"/>
<path d="M344.8,276c-6.8,0-12-5.2-12-12s5.2-12,12-12s12,5.2,12,12S351.2,276,344.8,276z M344.8,260c-2.4,0-4,1.6-4,4s1.6,4,4,4
	s4-1.6,4-4S346.8,260,344.8,260z"/>
<circle cx="344.8" cy="296" r="8"/>
<path d="M336,268h-32c-2.4,0-4-1.6-4-4s1.6-4,4-4h32c2.4,0,4,1.6,4,4S338.4,268,336,268z"/>
<path d="M348,52h-16c-2.4,0-4-1.6-4-4s1.6-4,4-4h16c2.4,0,4,1.6,4,4S350.4,52,348,52z"/>
<path d="M316,52h-16c-2.4,0-4-1.6-4-4s1.6-4,4-4h16c2.4,0,4,1.6,4,4S318.4,52,316,52z"/>
<path d="M348,108c-2.4,0-4-1.6-4-4V48c0-2.4,1.6-4,4-4s4,1.6,4,4v56C352,106.4,350.4,108,348,108z"/>
<path d="M164,492c-2.4,0-4-1.6-4-4v-56c0-2.4,1.6-4,4-4s4,1.6,4,4v56C168,490.4,166.4,492,164,492z"/>
<path d="M164,416c-2.4,0-4-1.6-4-4v-12c0-2.4,1.6-4,4-4s4,1.6,4,4v12C168,414.4,166.4,416,164,416z"/>
<rect x="144" y="504" width="224" height="8"/>
<g>
</g>
<g>
</g>
<g>
</g>
<g>
</g>
<g>
</g>
<g>
</g>
<g>
</g>
<g>
</g>
<g>
</g>
<g>
</g>
<g>
</g>
<g>
</g>
<g>
</g>
<g>
</g>
<g>
</g>
</svg>
