<?xml version="1.0" encoding="iso-8859-1"?>
<!-- Generator: Adobe Illustrator 21.0.0, SVG Export Plug-In . SVG Version: 6.00 Build 0)  -->
<svg version="1.1" id="Capa_1" xmlns="http://www.w3.org/2000/svg" xmlns:xlink="http://www.w3.org/1999/xlink" x="0px" y="0px"
	 viewBox="0 0 512 512" style="enable-background:new 0 0 512 512;" xml:space="preserve">
<path style="fill:#FE6A16;" d="M134.846,377.154c15.477,13.481,16.082,36.986,1.817,51.252c-2.761,2.761-5.868,4.964-9.181,6.61
	c-7.328,3.641-14.218,8.086-20.347,13.464l63.52,63.52l63.52-63.52c5.378,6.129,9.824,13.018,13.464,20.347
	c1.646,3.313,3.849,6.42,6.61,9.181c14.263,14.263,37.761,13.66,51.243-1.807c15.467-13.482,16.07-36.981,1.807-51.243
	c-2.761-2.761-5.868-4.964-9.181-6.61c-7.328-3.641-14.218-8.086-20.347-13.464l63.52-63.52l-63.52-63.52
	c-5.378,6.129-9.824,13.018-13.464,20.347c-1.646,3.313-3.849,6.42-6.61,9.181c-14.266,14.266-37.771,13.66-51.252-1.817
	c-15.477-13.481-16.082-36.986-1.817-51.252c2.761-2.761,5.868-4.964,9.181-6.61c7.328-3.641,14.218-8.086,20.347-13.464
	l-63.52-63.52l-63.52,63.52c-5.378-6.129-9.824-13.018-13.464-20.347c-1.646-3.313-3.849-6.42-6.61-9.181
	c-14.263-14.262-37.761-13.66-51.243,1.807c-15.467,13.482-16.07,36.981-1.807,51.243c2.761,2.761,5.868,4.964,9.181,6.61
	c7.328,3.641,14.218,8.086,20.347,13.464L0,341.344l63.52,63.52c5.378-6.129,9.824-13.018,13.464-20.347
	c1.646-3.313,3.849-6.42,6.61-9.181C97.86,361.071,121.365,361.677,134.846,377.154z"/>
<path style="fill:#64E1DC;" d="M305.553,134.846c-13.481,15.477-36.986,16.082-51.252,1.817c-2.761-2.761-4.964-5.868-6.61-9.181
	c-3.641-7.328-8.086-14.218-13.464-20.347l-63.52,63.52l63.52,63.52c-6.129,5.378-13.018,9.824-20.347,13.464
	c-3.313,1.646-6.42,3.849-9.181,6.61c-14.262,14.263-13.66,37.761,1.807,51.243c13.482,15.467,36.981,16.07,51.243,1.807
	c2.761-2.761,4.964-5.868,6.61-9.181c3.641-7.328,8.086-14.218,13.464-20.347l63.52,63.52l63.52-63.52
	c-6.129-5.378-13.018-9.824-20.347-13.464c-3.313-1.646-6.42-3.849-9.181-6.61c-14.266-14.266-13.66-37.771,1.817-51.252
	c13.481-15.477,36.986-16.082,51.252-1.817c2.761,2.761,4.964,5.868,6.61,9.181c3.641,7.328,8.086,14.218,13.464,20.347l63.52-63.52
	l-63.52-63.52c6.129-5.378,13.018-9.824,20.347-13.464c3.313-1.646,6.42-3.849,9.181-6.61C492.27,72.78,491.667,49.282,476.2,35.8
	c-13.482-15.467-36.981-16.07-51.243-1.807c-2.761,2.761-4.964,5.868-6.61,9.181c-3.641,7.328-8.086,14.218-13.464,20.347L341.363,0
	l-63.52,63.52c6.129,5.378,13.018,9.824,20.347,13.464c3.313,1.646,6.42,3.849,9.181,6.61
	C321.636,97.86,321.03,121.365,305.553,134.846z"/>
<path style="fill:#F24500;" d="M261.439,302.961c-1.106,1.545-2.352,3.021-3.74,4.409c-14.266,14.265-37.771,13.66-51.252-1.817
	l-71.601,71.601c15.477,13.481,16.082,36.986,1.817,51.252c-2.761,2.761-5.868,4.964-9.181,6.61
	c-7.328,3.641-14.218,8.086-20.347,13.464l63.52,63.52l63.52-63.52c5.378,6.129,9.824,13.018,13.464,20.346
	c1.646,3.313,3.849,6.42,6.61,9.181c14.263,14.262,37.761,13.66,51.243-1.807c15.467-13.482,16.07-36.98,1.807-51.243
	c-2.761-2.761-5.868-4.964-9.181-6.61c-7.328-3.64-14.218-8.086-20.347-13.464l63.52-63.52l-63.52-63.521
	c-1.344,1.532-2.63,3.111-3.859,4.733c-3.668,4.848-6.836,10.073-9.554,15.544C263.529,299.792,262.554,301.411,261.439,302.961z"/>
<path style="fill:#00C8C8;" d="M468.826,93.653c3.313-1.646,6.42-3.849,9.181-6.61C492.27,72.78,491.667,49.282,476.2,35.8
	L206.507,305.493c13.482,15.467,36.981,16.07,51.243,1.807c1.367-1.367,2.595-2.82,3.689-4.339c1.094-1.528,2.051-3.124,2.87-4.772
	c2.731-5.497,5.915-10.747,9.605-15.614c1.245-1.646,2.547-3.249,3.911-4.802l63.52,63.52l63.52-63.52
	c-6.129-5.378-13.018-9.824-20.347-13.464c-3.313-1.646-6.42-3.849-9.181-6.61c-14.266-14.266-13.66-37.771,1.817-51.252
	c13.481-15.477,36.986-16.083,51.252-1.817c2.761,2.761,4.964,5.868,6.61,9.181c3.641,7.328,8.086,14.218,13.464,20.346l63.52-63.52
	l-63.52-63.52C454.609,101.739,461.498,97.293,468.826,93.653z"/>
<g>
	<path style="fill:#64E1DC;" d="M209.039,250.561c1.528-1.094,3.124-2.051,4.772-2.87c5.497-2.731,10.747-5.915,15.614-9.605
		c-4.848,3.668-10.073,6.836-15.544,9.554C212.208,248.471,210.589,249.446,209.039,250.561z"/>
	<path style="fill:#64E1DC;" d="M261.439,302.961c1.115-1.55,2.09-3.169,2.921-4.842c2.718-5.471,5.886-10.696,9.554-15.544
		c-3.69,4.867-6.874,10.117-9.605,15.614C263.49,299.837,262.533,301.433,261.439,302.961z"/>
</g>
<g>
</g>
<g>
</g>
<g>
</g>
<g>
</g>
<g>
</g>
<g>
</g>
<g>
</g>
<g>
</g>
<g>
</g>
<g>
</g>
<g>
</g>
<g>
</g>
<g>
</g>
<g>
</g>
<g>
</g>
</svg>
