<?xml version="1.0" encoding="iso-8859-1"?>
<!-- Generator: Adobe Illustrator 16.0.0, SVG Export Plug-In . SVG Version: 6.00 Build 0)  -->
<!DOCTYPE svg PUBLIC "-//W3C//DTD SVG 1.1//EN" "http://www.w3.org/Graphics/SVG/1.1/DTD/svg11.dtd">
<svg version="1.1" id="Capa_1" xmlns="http://www.w3.org/2000/svg" xmlns:xlink="http://www.w3.org/1999/xlink" x="0px" y="0px"
	 width="45px" height="45px" viewBox="0 0 45 45" style="enable-background:new 0 0 45 45;" xml:space="preserve">
<g>
	<path d="M22.683,25.457c0,0.691-0.284,1.339-0.788,1.812l0.756,4.35c0.021,0.121-0.013,0.246-0.092,0.339
		c-0.079,0.094-0.195,0.147-0.318,0.147h-4.115c-0.122,0-0.238-0.055-0.317-0.146s-0.113-0.217-0.093-0.337l0.725-4.388
		c-0.484-0.469-0.757-1.104-0.757-1.777c0-1.379,1.122-2.5,2.5-2.5S22.683,24.078,22.683,25.457z M16.417,20.042h7.5V17.5h-7.5
		V20.042z M40,2.5v30c0,1.381-1.119,2.5-2.5,2.5H35v2.5c0,1.381-1.119,2.5-2.5,2.5v2.5c0,0.758-0.346,1.477-0.936,1.95
		C31.116,44.811,30.562,45,30,45c-0.182,0-0.361-0.02-0.543-0.061l-22.5-5C5.813,39.688,5,38.672,5,37.5v-3.75h2.583
		c0.69,0,1.25-0.561,1.25-1.25s-0.56-1.25-1.25-1.25H5v-2.5h2.583c0.69,0,1.25-0.561,1.25-1.25s-0.56-1.25-1.25-1.25H5v-2.5h2.583
		c0.69,0,1.25-0.561,1.25-1.25c0-0.69-0.56-1.25-1.25-1.25H5v-2.5h2.583c0.69,0,1.25-0.56,1.25-1.25s-0.56-1.25-1.25-1.25H5v-2.5
		h2.583c0.69,0,1.25-0.56,1.25-1.25s-0.56-1.25-1.25-1.25H5V7.5v-5C5,1.119,6.119,0,7.5,0h30c0.663,0,1.299,0.263,1.768,0.732
		C39.736,1.201,40,1.837,40,2.5z M30.167,22.542c0-1.381-1.119-2.5-2.5-2.5h-1.25V17.5c0-1.381-1.119-2.5-2.5-2.5h-7.5
		c-1.381,0-2.5,1.119-2.5,2.5v2.542h-1.25c-1.381,0-2.5,1.119-2.5,2.5v10c0,1.381,1.119,2.5,2.5,2.5h15c1.381,0,2.5-1.119,2.5-2.5
		V22.542z M37.5,2.5h-30V5c0.181,0,0.362,0.02,0.542,0.06l22.5,5c1.144,0.253,1.958,1.268,1.958,2.44v15c1.381,0,2.5,1.119,2.5,2.5
		v2.5h2.5V2.5z"/>
</g>
<g>
</g>
<g>
</g>
<g>
</g>
<g>
</g>
<g>
</g>
<g>
</g>
<g>
</g>
<g>
</g>
<g>
</g>
<g>
</g>
<g>
</g>
<g>
</g>
<g>
</g>
<g>
</g>
<g>
</g>
</svg>
