<?xml version="1.0" encoding="iso-8859-1"?>
<!-- Generator: Adobe Illustrator 16.0.0, SVG Export Plug-In . SVG Version: 6.00 Build 0)  -->
<!DOCTYPE svg PUBLIC "-//W3C//DTD SVG 1.1//EN" "http://www.w3.org/Graphics/SVG/1.1/DTD/svg11.dtd">
<svg version="1.1" id="Capa_1" xmlns="http://www.w3.org/2000/svg" xmlns:xlink="http://www.w3.org/1999/xlink" x="0px" y="0px"
	 width="81.286px" height="81.287px" viewBox="0 0 81.286 81.287" style="enable-background:new 0 0 81.286 81.287;"
	 xml:space="preserve">
<g>
	<g>
		<path d="M22.164,26.303h-0.209c-0.297,0-0.563-0.091-0.796-0.268c-0.234-0.178-0.349-0.521-0.349-1.03v-5.616l5.98,7.357h0.223
			v-7.357c0-0.415,0.035-0.707,0.107-0.88c0.071-0.166,0.171-0.297,0.299-0.369c0.131-0.075,0.379-0.143,0.755-0.185v-0.243H25.25
			v0.243c0.49-0.012,0.841,0.109,1.046,0.361c0.152,0.187,0.234,0.542,0.234,1.072v3.8l-4.361-5.479h-3.134v0.243
			c0.268,0.009,0.475,0.049,0.622,0.123c0.145,0.073,0.31,0.232,0.493,0.461l0.191,0.238v6.234c0,0.466-0.096,0.803-0.287,0.999
			c-0.192,0.196-0.533,0.296-1.019,0.301v0.243h3.134L22.164,26.303L22.164,26.303z"/>
		<path d="M36.377,23.736h-0.243c-0.214,0.78-0.572,1.364-1.072,1.747c-0.497,0.383-1.155,0.57-1.984,0.57H32.55
			c-0.253,0-0.437-0.032-0.55-0.101c-0.109-0.072-0.186-0.158-0.228-0.269c-0.047-0.109-0.064-0.406-0.064-0.894v-2.485
			c0.421,0,0.744,0.054,0.967,0.163c0.22,0.111,0.417,0.33,0.582,0.648c0.167,0.324,0.276,0.733,0.332,1.24h0.245V19.73h-0.245
			c-0.069,0.685-0.234,1.206-0.483,1.556c-0.252,0.35-0.654,0.53-1.217,0.53H31.71v-3.599h0.916c0.666,0,1.121,0.044,1.369,0.122
			c0.418,0.132,0.739,0.333,0.967,0.611c0.229,0.278,0.407,0.735,0.532,1.377h0.248v-2.61h-7.395v0.243h0.292
			c0.287,0,0.512,0.058,0.68,0.183c0.115,0.081,0.196,0.201,0.238,0.35c0.024,0.089,0.033,0.339,0.033,0.731v5.809
			c0,0.441-0.022,0.719-0.065,0.824c-0.064,0.147-0.148,0.248-0.26,0.316c-0.152,0.09-0.361,0.141-0.624,0.141h-0.292v0.242h7.641
			L36.377,23.736z"/>
		<path d="M37.906,19.534l2.905,7.213h0.243l2.409-5.694l2.19,5.694h0.251l2.774-7.295c0.246-0.62,0.383-0.952,0.41-1.008
			c0.087-0.16,0.187-0.278,0.301-0.356c0.114-0.077,0.247-0.124,0.42-0.137v-0.243h-2.292v0.243c0.34,0.009,0.574,0.063,0.7,0.163
			c0.118,0.105,0.18,0.243,0.18,0.421c0,0.124-0.018,0.254-0.053,0.397c-0.038,0.145-0.127,0.411-0.277,0.803l-1.442,3.786
			l-1.605-4.183c-0.191-0.511-0.292-0.822-0.292-0.918c0-0.091,0.027-0.172,0.073-0.245c0.055-0.072,0.127-0.123,0.219-0.149
			c0.135-0.047,0.342-0.065,0.644-0.069v-0.243h-4.28v0.243c0.274,0,0.479,0.036,0.624,0.109c0.145,0.069,0.266,0.196,0.374,0.367
			c0.109,0.168,0.261,0.518,0.462,1.022l0.365,0.94l-1.397,3.352l-1.731-4.292c-0.214-0.529-0.321-0.88-0.321-1.042
			c0-0.131,0.053-0.236,0.154-0.317c0.101-0.084,0.306-0.133,0.617-0.143V17.71h-3.833v0.243c0.278,0.023,0.475,0.114,0.593,0.261
			C37.403,18.371,37.612,18.808,37.906,19.534z"/>
		<path d="M50.759,26.35c0.13-0.086,0.244-0.132,0.357-0.132c0.135,0,0.309,0.046,0.519,0.132c0.367,0.154,0.68,0.265,0.928,0.321
			c0.244,0.054,0.514,0.081,0.79,0.081c0.885,0,1.612-0.264,2.191-0.794c0.575-0.535,0.862-1.168,0.862-1.906
			c0-0.584-0.178-1.101-0.533-1.551c-0.36-0.448-1.063-0.927-2.095-1.438c-0.736-0.365-1.213-0.624-1.411-0.762
			c-0.278-0.201-0.479-0.401-0.609-0.61c-0.089-0.147-0.137-0.324-0.137-0.52c0-0.311,0.132-0.583,0.388-0.817
			c0.26-0.239,0.611-0.355,1.054-0.355c0.57,0,1.104,0.224,1.597,0.669c0.493,0.452,0.806,1.049,0.931,1.785h0.265l-0.073-2.944
			h-0.189c-0.052,0.265-0.118,0.438-0.183,0.503c-0.065,0.067-0.152,0.101-0.267,0.101s-0.326-0.065-0.618-0.21
			c-0.292-0.143-0.54-0.238-0.741-0.288c-0.27-0.073-0.548-0.106-0.835-0.106c-0.784,0-1.437,0.247-1.952,0.744
			c-0.521,0.493-0.775,1.09-0.775,1.799c0,0.411,0.091,0.789,0.282,1.13c0.188,0.341,0.456,0.651,0.808,0.93
			c0.355,0.283,0.931,0.617,1.738,1.014c0.57,0.283,0.972,0.511,1.2,0.684c0.228,0.178,0.392,0.365,0.506,0.557
			c0.109,0.196,0.16,0.401,0.16,0.607c0,0.354-0.146,0.661-0.434,0.925c-0.287,0.261-0.676,0.397-1.163,0.397
			c-0.63,0-1.216-0.245-1.762-0.738c-0.543-0.493-0.914-1.21-1.104-2.145h-0.244v3.335h0.244
			C50.528,26.57,50.633,26.437,50.759,26.35z"/>
		<rect x="11.74" y="28.845" width="51.958" height="2.336"/>
		<rect x="22.507" y="34.489" width="13.945" height="2.336"/>
		<rect x="22.507" y="40.126" width="13.945" height="2.337"/>
		<rect x="11.813" y="45.766" width="24.64" height="2.336"/>
		<path d="M16.817,42.952h-0.163v0.228h4.043v-0.228c-0.252-0.023-0.448-0.096-0.593-0.224c-0.183-0.169-0.423-0.58-0.71-1.228
			l-3.021-6.864H16.26l-2.993,6.674c-0.284,0.637-0.525,1.057-0.716,1.264c-0.196,0.201-0.439,0.329-0.744,0.372v0.23h2.783v-0.23
			c-0.435-0.032-0.708-0.08-0.822-0.148c-0.187-0.109-0.283-0.282-0.283-0.52c0-0.174,0.058-0.399,0.172-0.671l0.351-0.814h2.956
			l0.441,1.038c0.12,0.273,0.176,0.427,0.185,0.465c0.026,0.078,0.04,0.153,0.04,0.224c0,0.13-0.049,0.222-0.14,0.288
			C17.372,42.906,17.143,42.952,16.817,42.952z M14.232,40.342l1.285-2.884l1.242,2.884H14.232z"/>
		<path d="M79.423,48.741v-2.244h-1.98v-2.095h-1.996v-33.77c0-1.483-1.206-2.682-2.685-2.682H2.686C1.204,7.951,0,9.152,0,10.632
			v46.717c0,1.487,1.208,2.683,2.686,2.683H54.62v4.143h2.092v3.663h1.647v3.372v1.938v0.188h18.965v-1.634v-0.492v-3.773h2.014
			v-5.533h1.948V48.732H79.42v0.009H79.423z M64.452,41.044v-7.641h-1.8v-2.018h-4.293v2.018h-2.019v1.089H38.985v2.336h17.356
			v3.299H38.985v2.335h17.356v3.303H38.985v2.336h17.356v1.241h-1.917v-0.899h-3.216H49.23h-0.153v5.562h1.647v0.661H5.368V13.32
			h64.7v29.736h-0.154h-0.306h-1.632v-2.012H64.452L64.452,41.044z M74.445,35.651c0,0.927-0.753,1.689-1.688,1.689
			c-0.933,0-1.686-0.757-1.686-1.689c0-0.925,0.753-1.684,1.686-1.684C73.692,33.967,74.445,34.726,74.445,35.651z M79.155,61.387
			h-1.94v4.261h-2.017v5.57H60.489v-3.622h-1.646v-4.489h-2.094v-3.07v-0.593h-1.875v-2.095v-1.72h-2.017v-0.958v-0.985h-1.643
			v-3.113h3.106v1.69h2.021v2.406v2.68v0.849h2.121v-0.849v-2.68v-6.567v-2.336v-3.303v-2.337v-3.3v-2.336v-0.979h3.859v0.979v2.336
			v3.3v2.337v3.303v2.336v2.662h2.129v-7.592h3.337v8.415h2.124v-6.394h0.154h2.686h0.415v7.744h2.126v-6.405h0.146h1.456v2.354
			h2.258v12.501H79.155z"/>
	</g>
</g>
<g>
</g>
<g>
</g>
<g>
</g>
<g>
</g>
<g>
</g>
<g>
</g>
<g>
</g>
<g>
</g>
<g>
</g>
<g>
</g>
<g>
</g>
<g>
</g>
<g>
</g>
<g>
</g>
<g>
</g>
</svg>
